# xmcd CD database file
#
# Track frame offsets:
#	150
#	20042
#	35797
#	51127
#	69415
#	87492
#	102875
#	122262
#	136772
#	152380
#
# Disc length: 2290 seconds
#
# Revision: 6
# Processed by: cddbd v1.5.2PL0 Copyright (c) Steve Scherf et al.
# Submitted via: CDex 1.70beta2
#
DISCID=7a08f00a
DTITLE=Dreams Come True - LOVE OVERFLOWS -ASIAN EDITION-
DYEAR=2004
DGENRE=JPop
TTITLE0=THIS IS IT! YOU'RE THE ONE! I KNEW IT! - ENGLISH VERSION-
TTITLE1=24/7 -ENGLISH VERSION-
TTITLE2=FLOWERS -ENGLISH VERSION-
TTITLE3=ONE YESTERDAY -DCT MIX-
TTITLE4=THE FIRST DAY WITHOUT YOU
TTITLE5=IT'S ALL ABOUT LOVE
TTITLE6=CHRYSALIS OR BUTTERFLY
TTITLE7=BEFORE NOW -ENGLISH VERSION-
TTITLE8=LOVE OVERFLOWS -ENGLISH VERSION DCT MIX-
TTITLE9=LOVE LOVE LOVE -ENGLISH VERSION-
EXTD=YEAR: 2004
EXTT0=
EXTT1=
EXTT2=
EXTT3=
EXTT4=
EXTT5=
EXTT6=
EXTT7=
EXTT8=
EXTT9=
PLAYORDER=
